# xmcd
# 
# Track frame offsets:
#     150
#     15091
#     31923
#     51936
#     65976
#     83270
#     101420
#     119118
#     135952
#     153346
#     169073
#     184381
#     196399
#     211473
#     226446
#     243141
#     257336
#     273860
# 
# Disc length: 3931
# 
# Revision: 0
# Processed by: cddbd v1.5.2PL0 Copyright (c) Steve Scherf et al.
# Submitted via: fre:ac v1.0.31
# 
DISCID=e90f5912
DTITLE=Shania Twain - Send It With Love
DYEAR=2005
DGENRE=Country
TTITLE0=Wild And Wicked
TTITLE1=Two Hearts, One Love
TTITLE2=Lost My Heart
TTITLE3=Bite My Lip
TTITLE4=(Don't Gimme That) Once Over
TTITLE5=Hate To Love
TTITLE6=Send It With Love
TTITLE7=Luv Eyes
TTITLE8=Rhythm Made Me Do It
TTITLE9=Half Breed
TTITLE10=It's Alright
TTITLE11=Love
TTITLE12=I Ain't Gonna Eat My Heart Out Anymore
TTITLE13=All Fired Up, No Place To Go
TTITLE14=The Heart Is Blind
TTITLE15=For The Love Of Him
TTITLE16=It's Alright (Club Mix)
TTITLE17=For The Love Of Him (Dance Mix)
EXTD=
EXTT0=
EXTT1=
EXTT2=
EXTT3=
EXTT4=
EXTT5=
EXTT6=
EXTT7=
EXTT8=
EXTT9=
EXTT10=
EXTT11=
EXTT12=
EXTT13=
EXTT14=
EXTT15=
EXTT16=
EXTT17=
PLAYORDER=
